<mxfile host="app.diagrams.net" modified="2020-10-20T21:23:59.045Z" agent="5.0 (Windows)" etag="Y2-xQ8gQvQcbUIiEsSvH" version="13.8.1" type="github">
  <diagram name="Page-1" id="2cc2dc42-3aac-f2a9-1cec-7a8b7cbee084">
    <mxGraphModel dx="2836" dy="1886" grid="1" gridSize="10" guides="1" tooltips="1" connect="1" arrows="1" fold="1" page="1" pageScale="1" pageWidth="1100" pageHeight="850" background="#ffffff" math="0" shadow="0">
      <root>
        <mxCell id="0" />
        <mxCell id="1" parent="0" />
        <mxCell id="gnUpR34HaUDO5HWtFXPL-53" value="" style="whiteSpace=wrap;html=1;aspect=fixed;" parent="1" vertex="1">
          <mxGeometry x="315" y="220" width="250" height="250" as="geometry" />
        </mxCell>
        <mxCell id="gnUpR34HaUDO5HWtFXPL-5" value="&lt;h1&gt;&amp;lt;HEADER&amp;gt;&lt;br&gt;&lt;/h1&gt;" style="rounded=0;whiteSpace=wrap;html=1;fillColor=#dae8fc;strokeColor=#6c8ebf;" parent="1" vertex="1">
          <mxGeometry width="1100" height="100" as="geometry" />
        </mxCell>
        <mxCell id="gnUpR34HaUDO5HWtFXPL-6" value="" style="rounded=0;whiteSpace=wrap;html=1;fillColor=#f5f5f5;strokeColor=#666666;fontColor=#333333;" parent="1" vertex="1">
          <mxGeometry y="100" width="250" height="750" as="geometry" />
        </mxCell>
        <mxCell id="gnUpR34HaUDO5HWtFXPL-7" value="&lt;font style=&quot;font-size: 24px&quot;&gt;&amp;lt;Side NavBar&amp;gt;&lt;/font&gt;" style="text;html=1;strokeColor=none;fillColor=none;align=center;verticalAlign=middle;whiteSpace=wrap;rounded=0;" parent="1" vertex="1">
          <mxGeometry x="50" y="110" width="180" height="30" as="geometry" />
        </mxCell>
        <mxCell id="gnUpR34HaUDO5HWtFXPL-8" value="&lt;i&gt;&lt;font style=&quot;font-size: 25px&quot;&gt;LOGO&lt;/font&gt;&lt;/i&gt;" style="text;html=1;strokeColor=#006EAF;fillColor=#1ba1e2;align=center;verticalAlign=middle;whiteSpace=wrap;rounded=0;fontColor=#ffffff;" parent="1" vertex="1">
          <mxGeometry x="70" y="30" width="110" height="40" as="geometry" />
        </mxCell>
        <mxCell id="gnUpR34HaUDO5HWtFXPL-12" value="" style="strokeWidth=1;shadow=0;dashed=0;align=center;html=1;shape=mxgraph.mockup.forms.rrect;rSize=0;strokeColor=#999999;fillColor=#ffffff;" parent="1" vertex="1">
          <mxGeometry y="180" width="250" height="160" as="geometry" />
        </mxCell>
        <mxCell id="gnUpR34HaUDO5HWtFXPL-13" value="&lt;font style=&quot;font-size: 27px&quot;&gt;Productos &lt;/font&gt;▼" style="strokeWidth=1;shadow=0;dashed=0;align=center;html=1;shape=mxgraph.mockup.forms.rrect;rSize=0;strokeColor=#006EAF;fontSize=17;fillColor=#1ba1e2;resizeWidth=1;fontColor=#ffffff;" parent="gnUpR34HaUDO5HWtFXPL-12" vertex="1">
          <mxGeometry width="250" height="60" relative="1" as="geometry">
            <mxPoint as="offset" />
          </mxGeometry>
        </mxCell>
        <mxCell id="gnUpR34HaUDO5HWtFXPL-18" value="&lt;ul&gt;&lt;li&gt;&lt;font style=&quot;font-size: 22px&quot;&gt;&amp;nbsp; Agregar&lt;br&gt;&lt;/font&gt;&lt;/li&gt;&lt;/ul&gt;" style="strokeWidth=1;shadow=0;dashed=0;align=center;html=1;shape=mxgraph.mockup.forms.anchor;fontSize=17;fontColor=#666666;align=left;spacingLeft=5;resizeWidth=1;" parent="gnUpR34HaUDO5HWtFXPL-12" vertex="1">
          <mxGeometry y="80.60631578947368" width="250" height="33.68421052631579" as="geometry" />
        </mxCell>
        <mxCell id="gnUpR34HaUDO5HWtFXPL-20" value="&lt;ul&gt;&lt;li&gt;&lt;font style=&quot;font-size: 23px&quot;&gt;&amp;nbsp; Eliminar&lt;/font&gt;&lt;/li&gt;&lt;/ul&gt;" style="strokeWidth=1;shadow=0;dashed=0;align=center;html=1;shape=mxgraph.mockup.forms.anchor;fontSize=17;fontColor=#666666;align=left;spacingLeft=5;resizeWidth=1;" parent="gnUpR34HaUDO5HWtFXPL-12" vertex="1">
          <mxGeometry y="114.29102167182661" width="250" height="28.235294117647058" as="geometry" />
        </mxCell>
        <mxCell id="gnUpR34HaUDO5HWtFXPL-22" value="&amp;lt;Searchbar&amp;gt;" style="strokeWidth=1;shadow=0;dashed=0;align=center;html=1;shape=mxgraph.mockup.forms.searchBox;strokeColor=#999999;mainText=;strokeColor2=#008cff;fontColor=#666666;fontSize=17;align=left;spacingLeft=3;" parent="1" vertex="1">
          <mxGeometry x="480" y="120" width="330" height="30" as="geometry" />
        </mxCell>
        <mxCell id="gnUpR34HaUDO5HWtFXPL-23" value="" style="verticalLabelPosition=bottom;shadow=0;dashed=0;align=center;html=1;verticalAlign=top;strokeWidth=1;shape=mxgraph.mockup.graphics.simpleIcon;strokeColor=#999999;" parent="1" vertex="1">
          <mxGeometry x="350" y="230" width="180" height="150" as="geometry" />
        </mxCell>
        <mxCell id="gnUpR34HaUDO5HWtFXPL-24" value="&lt;font style=&quot;font-size: 23px&quot;&gt;Producto X&lt;/font&gt;" style="text;html=1;strokeColor=none;fillColor=none;align=center;verticalAlign=middle;whiteSpace=wrap;rounded=0;" parent="1" vertex="1">
          <mxGeometry x="370" y="405" width="140" height="20" as="geometry" />
        </mxCell>
        <mxCell id="gnUpR34HaUDO5HWtFXPL-25" value="" style="verticalLabelPosition=bottom;shadow=0;dashed=0;align=center;html=1;verticalAlign=top;strokeWidth=1;shape=mxgraph.mockup.graphics.simpleIcon;strokeColor=#999999;" parent="1" vertex="1">
          <mxGeometry x="600" y="230" width="180" height="150" as="geometry" />
        </mxCell>
        <mxCell id="gnUpR34HaUDO5HWtFXPL-26" value="&lt;font style=&quot;font-size: 23px&quot;&gt;Producto Y&lt;br&gt;&lt;/font&gt;" style="text;html=1;strokeColor=none;fillColor=none;align=center;verticalAlign=middle;whiteSpace=wrap;rounded=0;" parent="1" vertex="1">
          <mxGeometry x="620" y="405" width="140" height="20" as="geometry" />
        </mxCell>
        <mxCell id="gnUpR34HaUDO5HWtFXPL-27" value="" style="verticalLabelPosition=bottom;shadow=0;dashed=0;align=center;html=1;verticalAlign=top;strokeWidth=1;shape=mxgraph.mockup.graphics.simpleIcon;strokeColor=#999999;" parent="1" vertex="1">
          <mxGeometry x="850" y="230" width="180" height="150" as="geometry" />
        </mxCell>
        <mxCell id="gnUpR34HaUDO5HWtFXPL-28" value="&lt;font style=&quot;font-size: 23px&quot;&gt;Producto Z&lt;br&gt;&lt;/font&gt;" style="text;html=1;strokeColor=none;fillColor=none;align=center;verticalAlign=middle;whiteSpace=wrap;rounded=0;" parent="1" vertex="1">
          <mxGeometry x="870" y="405" width="140" height="20" as="geometry" />
        </mxCell>
        <mxCell id="gnUpR34HaUDO5HWtFXPL-29" value="" style="verticalLabelPosition=bottom;shadow=0;dashed=0;align=center;html=1;verticalAlign=top;strokeWidth=1;shape=mxgraph.mockup.graphics.simpleIcon;strokeColor=#999999;" parent="1" vertex="1">
          <mxGeometry x="350" y="480" width="180" height="150" as="geometry" />
        </mxCell>
        <mxCell id="gnUpR34HaUDO5HWtFXPL-30" value="&lt;font style=&quot;font-size: 23px&quot;&gt;Producto N&lt;/font&gt;" style="text;html=1;strokeColor=none;fillColor=none;align=center;verticalAlign=middle;whiteSpace=wrap;rounded=0;" parent="1" vertex="1">
          <mxGeometry x="370" y="655" width="140" height="20" as="geometry" />
        </mxCell>
        <mxCell id="gnUpR34HaUDO5HWtFXPL-31" value="" style="verticalLabelPosition=bottom;shadow=0;dashed=0;align=center;html=1;verticalAlign=top;strokeWidth=1;shape=mxgraph.mockup.graphics.simpleIcon;strokeColor=#999999;" parent="1" vertex="1">
          <mxGeometry x="600" y="480" width="180" height="150" as="geometry" />
        </mxCell>
        <mxCell id="gnUpR34HaUDO5HWtFXPL-32" value="&lt;font style=&quot;font-size: 23px&quot;&gt;Producto F&lt;/font&gt;" style="text;html=1;strokeColor=none;fillColor=none;align=center;verticalAlign=middle;whiteSpace=wrap;rounded=0;" parent="1" vertex="1">
          <mxGeometry x="620" y="655" width="140" height="20" as="geometry" />
        </mxCell>
        <mxCell id="gnUpR34HaUDO5HWtFXPL-33" value="" style="verticalLabelPosition=bottom;shadow=0;dashed=0;align=center;html=1;verticalAlign=top;strokeWidth=1;shape=mxgraph.mockup.graphics.simpleIcon;strokeColor=#999999;" parent="1" vertex="1">
          <mxGeometry x="850" y="480" width="180" height="150" as="geometry" />
        </mxCell>
        <mxCell id="gnUpR34HaUDO5HWtFXPL-34" value="&lt;font style=&quot;font-size: 23px&quot;&gt;Producto G&lt;br&gt;&lt;/font&gt;" style="text;html=1;strokeColor=none;fillColor=none;align=center;verticalAlign=middle;whiteSpace=wrap;rounded=0;" parent="1" vertex="1">
          <mxGeometry x="870" y="655" width="140" height="20" as="geometry" />
        </mxCell>
        <mxCell id="gnUpR34HaUDO5HWtFXPL-35" value="" style="verticalLabelPosition=bottom;shadow=0;dashed=0;align=center;html=1;verticalAlign=top;strokeWidth=1;shape=mxgraph.mockup.navigation.scrollBar;strokeColor=#999999;barPos=20;fillColor2=#99ddff;strokeColor2=none;direction=north;" parent="1" vertex="1">
          <mxGeometry x="1080" y="100" width="20" height="750" as="geometry" />
        </mxCell>
        <mxCell id="gnUpR34HaUDO5HWtFXPL-43" value="&lt;font style=&quot;font-size: 28px&quot;&gt;Provedores &lt;/font&gt;&lt;font style=&quot;font-size: 19px&quot;&gt;▼&lt;/font&gt;" style="rounded=0;whiteSpace=wrap;html=1;" parent="1" vertex="1">
          <mxGeometry y="360" width="250" height="65" as="geometry" />
        </mxCell>
        <mxCell id="gnUpR34HaUDO5HWtFXPL-44" value="&lt;font style=&quot;font-size: 31px&quot;&gt;Inventario&lt;/font&gt;" style="rounded=0;whiteSpace=wrap;html=1;" parent="1" vertex="1">
          <mxGeometry y="442.5" width="250" height="65" as="geometry" />
        </mxCell>
        <mxCell id="gnUpR34HaUDO5HWtFXPL-45" value="&lt;font style=&quot;font-size: 23px&quot; color=&quot;#00FF00&quot;&gt;Precio&lt;/font&gt;" style="text;html=1;strokeColor=none;fillColor=none;align=center;verticalAlign=middle;whiteSpace=wrap;rounded=0;" parent="1" vertex="1">
          <mxGeometry x="380" y="442.5" width="70" height="20" as="geometry" />
        </mxCell>
        <mxCell id="gnUpR34HaUDO5HWtFXPL-47" value="&lt;font style=&quot;font-size: 23px&quot; color=&quot;#00FF00&quot;&gt;Precio&lt;/font&gt;" style="text;html=1;strokeColor=none;fillColor=none;align=center;verticalAlign=middle;whiteSpace=wrap;rounded=0;" parent="1" vertex="1">
          <mxGeometry x="630" y="442.5" width="70" height="20" as="geometry" />
        </mxCell>
        <mxCell id="gnUpR34HaUDO5HWtFXPL-48" value="&lt;font style=&quot;font-size: 23px&quot; color=&quot;#00FF00&quot;&gt;Precio&lt;/font&gt;" style="text;html=1;strokeColor=none;fillColor=none;align=center;verticalAlign=middle;whiteSpace=wrap;rounded=0;" parent="1" vertex="1">
          <mxGeometry x="880" y="442.5" width="70" height="20" as="geometry" />
        </mxCell>
        <mxCell id="gnUpR34HaUDO5HWtFXPL-49" value="&lt;font style=&quot;font-size: 23px&quot; color=&quot;#00FF00&quot;&gt;Precio&lt;/font&gt;" style="text;html=1;strokeColor=none;fillColor=none;align=center;verticalAlign=middle;whiteSpace=wrap;rounded=0;" parent="1" vertex="1">
          <mxGeometry x="380" y="680" width="70" height="20" as="geometry" />
        </mxCell>
        <mxCell id="gnUpR34HaUDO5HWtFXPL-50" value="&lt;font style=&quot;font-size: 23px&quot; color=&quot;#00FF00&quot;&gt;Precio&lt;/font&gt;" style="text;html=1;strokeColor=none;fillColor=none;align=center;verticalAlign=middle;whiteSpace=wrap;rounded=0;" parent="1" vertex="1">
          <mxGeometry x="630" y="680" width="70" height="20" as="geometry" />
        </mxCell>
        <mxCell id="gnUpR34HaUDO5HWtFXPL-51" value="&lt;font style=&quot;font-size: 23px&quot; color=&quot;#00FF00&quot;&gt;Precio&lt;/font&gt;" style="text;html=1;strokeColor=none;fillColor=none;align=center;verticalAlign=middle;whiteSpace=wrap;rounded=0;" parent="1" vertex="1">
          <mxGeometry x="880" y="690" width="70" height="20" as="geometry" />
        </mxCell>
        <mxCell id="gnUpR34HaUDO5HWtFXPL-55" style="edgeStyle=orthogonalEdgeStyle;rounded=0;orthogonalLoop=1;jettySize=auto;html=1;" parent="1" source="gnUpR34HaUDO5HWtFXPL-54" target="gnUpR34HaUDO5HWtFXPL-5" edge="1">
          <mxGeometry relative="1" as="geometry" />
        </mxCell>
        <mxCell id="gnUpR34HaUDO5HWtFXPL-54" value="&lt;h1&gt;COMPONENTE 1: HEADER&lt;br&gt;&lt;/h1&gt;SImplee componente con logo de la emprsa" style="text;html=1;strokeColor=#d6b656;fillColor=#fff2cc;spacing=5;spacingTop=-20;whiteSpace=wrap;overflow=hidden;rounded=0;" parent="1" vertex="1">
          <mxGeometry x="740" y="-160" width="290" height="120" as="geometry" />
        </mxCell>
        <mxCell id="gnUpR34HaUDO5HWtFXPL-57" style="edgeStyle=orthogonalEdgeStyle;rounded=0;orthogonalLoop=1;jettySize=auto;html=1;entryX=-0.024;entryY=0.056;entryDx=0;entryDy=0;entryPerimeter=0;" parent="1" source="gnUpR34HaUDO5HWtFXPL-56" target="gnUpR34HaUDO5HWtFXPL-6" edge="1">
          <mxGeometry relative="1" as="geometry" />
        </mxCell>
        <mxCell id="gnUpR34HaUDO5HWtFXPL-56" value="&lt;h1&gt;COMPONENTE 2: Side NavBar&lt;br&gt;&lt;/h1&gt;&lt;div&gt;Menu de navegacion con 3 botonoes y sub menus.&lt;/div&gt;&lt;div&gt;&lt;br&gt;&lt;/div&gt;&lt;div&gt;Productos (componente de lista de productos):&lt;/div&gt;&lt;div&gt;&amp;nbsp;* Agregar (cambia a componente para Agregar Producto)&lt;br&gt;&lt;/div&gt;&lt;div&gt;&amp;nbsp;* Eliminar (cambia a componente para Borrar Producto)&lt;/div&gt;&lt;div&gt;&lt;br&gt;&lt;/div&gt;&lt;div&gt;Proveedores (componente de lista de proveedores) :&lt;br&gt;&lt;/div&gt;&lt;div&gt;&amp;nbsp; * Agregar(cambia a componente Agregar proveedor )&lt;/div&gt;&lt;div&gt;&amp;nbsp; * Eliminar (cambia a componente Borrar Proveedor)&lt;/div&gt;&lt;div&gt;&lt;br&gt;&lt;/div&gt;&lt;div&gt;Inventario (cambia a componente para agregar y disminuir productos)&lt;/div&gt;&lt;div&gt;&amp;nbsp;&lt;/div&gt;&lt;div&gt;&lt;br&gt;&lt;/div&gt;&lt;div&gt;&lt;br&gt;&lt;/div&gt;&lt;div&gt;&lt;br&gt;&lt;/div&gt;&lt;div&gt;&amp;nbsp; &lt;br&gt;&lt;/div&gt;&lt;div&gt;&lt;br&gt;&lt;/div&gt;&lt;div&gt;&lt;br&gt;&lt;/div&gt;" style="text;html=1;strokeColor=#d6b656;fillColor=#fff2cc;spacing=5;spacingTop=-20;whiteSpace=wrap;overflow=hidden;rounded=0;" parent="1" vertex="1">
          <mxGeometry x="-500" y="100" width="340" height="270" as="geometry" />
        </mxCell>
        <mxCell id="gnUpR34HaUDO5HWtFXPL-59" value="" style="endArrow=none;html=1;exitX=1;exitY=1;exitDx=0;exitDy=0;entryX=0;entryY=0.07;entryDx=0;entryDy=0;entryPerimeter=0;" parent="1" source="gnUpR34HaUDO5HWtFXPL-6" target="gnUpR34HaUDO5HWtFXPL-35" edge="1">
          <mxGeometry width="50" height="50" relative="1" as="geometry">
            <mxPoint x="280" y="870" as="sourcePoint" />
            <mxPoint x="330" y="820" as="targetPoint" />
          </mxGeometry>
        </mxCell>
        <mxCell id="gnUpR34HaUDO5HWtFXPL-61" style="edgeStyle=orthogonalEdgeStyle;rounded=0;orthogonalLoop=1;jettySize=auto;html=1;" parent="1" source="gnUpR34HaUDO5HWtFXPL-60" edge="1">
          <mxGeometry relative="1" as="geometry">
            <mxPoint x="680" y="850" as="targetPoint" />
          </mxGeometry>
        </mxCell>
        <mxCell id="gnUpR34HaUDO5HWtFXPL-60" value="&lt;h1&gt;COMPONENTE 3: Productos.&lt;/h1&gt;&lt;div&gt;Componente con tarjetas de todos los productos y barra para buscar producto. &lt;br&gt;&lt;/div&gt;&lt;div&gt;&amp;nbsp;&lt;br&gt;&lt;/div&gt;&lt;div&gt;&lt;br&gt;&lt;/div&gt;&lt;div&gt;&lt;br&gt;&lt;/div&gt;&lt;div&gt;&lt;br&gt;&lt;/div&gt;&lt;div&gt;&amp;nbsp; &lt;br&gt;&lt;/div&gt;&lt;div&gt;&lt;br&gt;&lt;/div&gt;&lt;div&gt;&lt;br&gt;&lt;/div&gt;." style="text;html=1;strokeColor=#d6b656;fillColor=#fff2cc;spacing=5;spacingTop=-20;whiteSpace=wrap;overflow=hidden;rounded=0;" parent="1" vertex="1">
          <mxGeometry x="490" y="920" width="380" height="100" as="geometry" />
        </mxCell>
        <mxCell id="gnUpR34HaUDO5HWtFXPL-62" value="&lt;font style=&quot;font-size: 20px&quot;&gt;&amp;lt;PRODUCTOS&amp;gt;&lt;/font&gt;" style="text;html=1;strokeColor=none;fillColor=none;align=center;verticalAlign=middle;whiteSpace=wrap;rounded=0;" parent="1" vertex="1">
          <mxGeometry x="270" y="120" width="140" height="20" as="geometry" />
        </mxCell>
        <mxCell id="gnUpR34HaUDO5HWtFXPL-63" value="&lt;font style=&quot;font-size: 20px&quot;&gt;&amp;lt;&lt;/font&gt;&lt;font style=&quot;font-size: 20px&quot;&gt;&lt;font style=&quot;font-size: 20px&quot;&gt;TARJETA&lt;/font&gt;&amp;gt;&lt;/font&gt;" style="text;html=1;strokeColor=#666666;fillColor=#f5f5f5;align=center;verticalAlign=middle;whiteSpace=wrap;rounded=0;fontColor=#333333;" parent="1" vertex="1">
          <mxGeometry x="320" y="230" width="110" height="20" as="geometry" />
        </mxCell>
        <mxCell id="gnUpR34HaUDO5HWtFXPL-65" style="edgeStyle=orthogonalEdgeStyle;rounded=0;orthogonalLoop=1;jettySize=auto;html=1;entryX=0;entryY=0.5;entryDx=0;entryDy=0;" parent="1" source="gnUpR34HaUDO5HWtFXPL-64" target="gnUpR34HaUDO5HWtFXPL-53" edge="1">
          <mxGeometry relative="1" as="geometry" />
        </mxCell>
        <mxCell id="gnUpR34HaUDO5HWtFXPL-64" value="&lt;h1&gt;COMPONENTE 5: Tarjeta.&lt;/h1&gt;&lt;div&gt;Tarjeta que lleva al componente del producto.&lt;/div&gt;&lt;div&gt;Tiene una imagen,&amp;nbsp; el nombre y el precio&lt;br&gt;&lt;/div&gt;&lt;div&gt;&amp;nbsp;&lt;br&gt;&lt;/div&gt;&lt;div&gt;&lt;br&gt;&lt;/div&gt;&lt;div&gt;&lt;br&gt;&lt;/div&gt;&lt;div&gt;&lt;br&gt;&lt;/div&gt;&lt;div&gt;&amp;nbsp; &lt;br&gt;&lt;/div&gt;&lt;div&gt;&lt;br&gt;&lt;/div&gt;&lt;div&gt;&lt;br&gt;&lt;/div&gt;." style="text;html=1;strokeColor=#d6b656;fillColor=#fff2cc;spacing=5;spacingTop=-20;whiteSpace=wrap;overflow=hidden;rounded=0;" parent="1" vertex="1">
          <mxGeometry x="100" y="1100" width="380" height="100" as="geometry" />
        </mxCell>
        <mxCell id="gnUpR34HaUDO5HWtFXPL-67" style="edgeStyle=orthogonalEdgeStyle;rounded=0;orthogonalLoop=1;jettySize=auto;html=1;entryX=0;entryY=0.476;entryDx=0;entryDy=0;entryPerimeter=0;" parent="1" source="gnUpR34HaUDO5HWtFXPL-66" target="gnUpR34HaUDO5HWtFXPL-22" edge="1">
          <mxGeometry relative="1" as="geometry">
            <Array as="points">
              <mxPoint x="430" y="134" />
            </Array>
          </mxGeometry>
        </mxCell>
        <mxCell id="gnUpR34HaUDO5HWtFXPL-66" value="&lt;h1&gt;COMPONENTE 4: Searchbar&lt;/h1&gt;&lt;div&gt;Barra de búsqueda que filtra las tarjetas&lt;/div&gt;&lt;div&gt;&lt;br&gt;&lt;/div&gt;&lt;div&gt;&amp;nbsp;&lt;br&gt;&lt;/div&gt;&lt;div&gt;&lt;br&gt;&lt;/div&gt;&lt;div&gt;&lt;br&gt;&lt;/div&gt;&lt;div&gt;&lt;br&gt;&lt;/div&gt;&lt;div&gt;&amp;nbsp; &lt;br&gt;&lt;/div&gt;&lt;div&gt;&lt;br&gt;&lt;/div&gt;&lt;div&gt;&lt;br&gt;&lt;/div&gt;." style="text;html=1;strokeColor=#d6b656;fillColor=#fff2cc;spacing=5;spacingTop=-20;whiteSpace=wrap;overflow=hidden;rounded=0;" parent="1" vertex="1">
          <mxGeometry x="120" y="-180" width="380" height="110" as="geometry" />
        </mxCell>
      </root>
    </mxGraphModel>
  </diagram>
</mxfile>
